<svg xmlns="http://www.w3.org/2000/svg" width="736" height="1256" viewBox="0 0 736 1256" font-family="Arial, sans-serif" font-size="14"><defs><marker id="arr" markerWidth="9" markerHeight="9" refX="7.5" refY="3" orient="auto"><path d="M0,0 L8,3 L0,6 Z" fill="#222"/></marker></defs><rect width="100%" height="100%" fill="#ffffff"/><path d="M368.2 86.0 L368.2 130.0" fill="none" stroke="#222" stroke-width="1.5" marker-end="url(#arr)"/><path d="M368.2 176.0 L368.2 220.0" fill="none" stroke="#222" stroke-width="1.5" marker-end="url(#arr)"/><path d="M368.2 266.0 L368.2 310.0" fill="none" stroke="#222" stroke-width="1.5" marker-end="url(#arr)"/><path d="M368.2 356.0 L368.2 400.0" fill="none" stroke="#222" stroke-width="1.5" marker-end="url(#arr)"/><path d="M368.2 476.0 L368.2 520.0" fill="none" stroke="#222" stroke-width="1.5" marker-end="url(#arr)"/><text x="374.2" y="498.0" text-anchor="start" font-size="12" fill="#444">Так</text><path d="M249.0 558.0 L185.2 558.0 L185.2 644.0" fill="none" stroke="#222" stroke-width="1.5" marker-end="url(#arr)"/><text x="243.0" y="551.0" text-anchor="end" font-size="12" fill="#444">Так</text><path d="M185.2 690.0 L185.2 902.0 L368.2 902.0" fill="none" stroke="#222" stroke-width="1.5"/><path d="M487.5 558.0 L499.5 558.0 L499.5 644.0" fill="none" stroke="#222" stroke-width="1.5" marker-end="url(#arr)"/><text x="493.5" y="551.0" text-anchor="start" font-size="12" fill="#444">Ні</text><path d="M499.5 720.0 L499.5 768.0" fill="none" stroke="#222" stroke-width="1.5" marker-end="url(#arr)"/><text x="505.5" y="744.0" text-anchor="start" font-size="12" fill="#444">Так</text><path d="M614.5 682.0 L654.5 682.0 L654.5 858.0 L499.5 858.0" fill="none" stroke="#222" stroke-width="1.5"/><text x="620.5" y="675.0" text-anchor="start" font-size="12" fill="#444">Ні</text><path d="M499.5 814.0 L499.5 858.0" fill="none" stroke="#222" stroke-width="1.5"/><path d="M499.5 858.0 L499.5 902.0 L368.2 902.0" fill="none" stroke="#222" stroke-width="1.5"/><path d="M368.2 902.0 L368.2 946.0" fill="none" stroke="#222" stroke-width="1.5" marker-end="url(#arr)"/><path d="M368.2 992.0 L368.2 1014.0 L692.5 1014.0 L692.5 438.0 L491.8 438.0" fill="none" stroke="#222" stroke-width="1.5" marker-end="url(#arr)"/><path d="M244.8 438.0 L44.0 438.0 L44.0 1036.0 L368.2 1036.0" fill="none" stroke="#222" stroke-width="1.5"/><text x="238.8" y="431.0" text-anchor="end" font-size="12" fill="#444">Ні</text><path d="M368.2 1036.0 L368.2 1080.0" fill="none" stroke="#222" stroke-width="1.5" marker-end="url(#arr)"/><path d="M368.2 1126.0 L368.2 1170.0" fill="none" stroke="#222" stroke-width="1.5" marker-end="url(#arr)"/><rect x="303.2" y="44.0" width="130.0" height="42.0" rx="21.0" fill="#fdfdfd" stroke="#222" stroke-width="1.5"/><text x="368.2" y="65.0" text-anchor="middle" dominant-baseline="middle" fill="#111">Початок deviation</text><rect x="273.5" y="130.0" width="189.5" height="46.0" fill="#fdfdfd" stroke="#222" stroke-width="1.5"/><text x="368.2" y="153.0" text-anchor="middle" dominant-baseline="middle" fill="#111">highest = values[0]</text><rect x="277.8" y="220.0" width="181.0" height="46.0" fill="#fdfdfd" stroke="#222" stroke-width="1.5"/><text x="368.2" y="243.0" text-anchor="middle" dominant-baseline="middle" fill="#111">lowest = values[0]</text><rect x="303.2" y="310.0" width="130.0" height="46.0" fill="#fdfdfd" stroke="#222" stroke-width="1.5"/><text x="368.2" y="333.0" text-anchor="middle" dominant-baseline="middle" fill="#111">idx = 1</text><polygon points="368.2,400.0 491.8,438.0 368.2,476.0 244.8,438.0" fill="#fdfdfd" stroke="#222" stroke-width="1.5"/><text x="368.2" y="438.0" text-anchor="middle" dominant-baseline="middle" fill="#111">idx &lt; dovzhyna(values)</text><polygon points="368.2,520.0 487.5,558.0 368.2,596.0 249.0,558.0" fill="#fdfdfd" stroke="#222" stroke-width="1.5"/><text x="368.2" y="558.0" text-anchor="middle" dominant-baseline="middle" fill="#111">values[idx] &gt; highest</text><rect x="82.0" y="644.0" width="206.5" height="46.0" fill="#fdfdfd" stroke="#222" stroke-width="1.5"/><text x="185.2" y="667.0" text-anchor="middle" dominant-baseline="middle" fill="#111">highest = values[idx]</text><polygon points="499.5,644.0 614.5,682.0 499.5,720.0 384.5,682.0" fill="#fdfdfd" stroke="#222" stroke-width="1.5"/><text x="499.5" y="682.0" text-anchor="middle" dominant-baseline="middle" fill="#111">values[idx] &lt; lowest</text><rect x="400.5" y="768.0" width="198.0" height="46.0" fill="#fdfdfd" stroke="#222" stroke-width="1.5"/><text x="499.5" y="791.0" text-anchor="middle" dominant-baseline="middle" fill="#111">lowest = values[idx]</text><rect x="299.0" y="946.0" width="138.5" height="46.0" fill="#fdfdfd" stroke="#222" stroke-width="1.5"/><text x="368.2" y="969.0" text-anchor="middle" dominant-baseline="middle" fill="#111">idx = idx + 1</text><rect x="243.8" y="1080.0" width="249.0" height="46.0" fill="#fdfdfd" stroke="#222" stroke-width="1.5"/><text x="368.2" y="1103.0" text-anchor="middle" dominant-baseline="middle" fill="#111">Повернути highest - lowest</text><rect x="303.2" y="1170.0" width="130.0" height="42.0" rx="21.0" fill="#fdfdfd" stroke="#222" stroke-width="1.5"/><text x="368.2" y="1191.0" text-anchor="middle" dominant-baseline="middle" fill="#111">Кінець deviation</text></svg>