<svg xmlns="http://www.w3.org/2000/svg" width="422" height="830" viewBox="0 0 422 830" font-family="Arial, sans-serif" font-size="14"><defs><marker id="arr" markerWidth="9" markerHeight="9" refX="7.5" refY="3" orient="auto"><path d="M0,0 L8,3 L0,6 Z" fill="#222"/></marker></defs><rect width="100%" height="100%" fill="#ffffff"/><path d="M210.8 86.0 L210.8 130.0" fill="none" stroke="#222" stroke-width="1.5" marker-end="url(#arr)"/><path d="M210.8 176.0 L210.8 220.0" fill="none" stroke="#222" stroke-width="1.5" marker-end="url(#arr)"/><path d="M210.8 266.0 L210.8 310.0" fill="none" stroke="#222" stroke-width="1.5" marker-end="url(#arr)"/><path d="M210.8 386.0 L210.8 430.0" fill="none" stroke="#222" stroke-width="1.5" marker-end="url(#arr)"/><text x="216.8" y="408.0" text-anchor="start" font-size="12" fill="#444">Так</text><path d="M210.8 476.0 L210.8 520.0" fill="none" stroke="#222" stroke-width="1.5" marker-end="url(#arr)"/><path d="M210.8 566.0 L210.8 588.0 L377.5 588.0 L377.5 348.0 L334.2 348.0" fill="none" stroke="#222" stroke-width="1.5" marker-end="url(#arr)"/><path d="M87.2 348.0 L44.0 348.0 L44.0 610.0 L210.8 610.0" fill="none" stroke="#222" stroke-width="1.5"/><text x="81.2" y="341.0" text-anchor="end" font-size="12" fill="#444">Ні</text><path d="M210.8 610.0 L210.8 654.0" fill="none" stroke="#222" stroke-width="1.5" marker-end="url(#arr)"/><path d="M210.8 700.0 L210.8 744.0" fill="none" stroke="#222" stroke-width="1.5" marker-end="url(#arr)"/><rect x="145.8" y="44.0" width="130.0" height="42.0" rx="21.0" fill="#fdfdfd" stroke="#222" stroke-width="1.5"/><text x="210.8" y="65.0" text-anchor="middle" dominant-baseline="middle" fill="#111">Початок average</text><rect x="145.8" y="130.0" width="130.0" height="46.0" fill="#fdfdfd" stroke="#222" stroke-width="1.5"/><text x="210.8" y="153.0" text-anchor="middle" dominant-baseline="middle" fill="#111">total = 0</text><rect x="145.8" y="220.0" width="130.0" height="46.0" fill="#fdfdfd" stroke="#222" stroke-width="1.5"/><text x="210.8" y="243.0" text-anchor="middle" dominant-baseline="middle" fill="#111">idx = 0</text><polygon points="210.8,310.0 334.2,348.0 210.8,386.0 87.2,348.0" fill="#fdfdfd" stroke="#222" stroke-width="1.5"/><text x="210.8" y="348.0" text-anchor="middle" dominant-baseline="middle" fill="#111">idx &lt; dovzhyna(values)</text><rect x="82.0" y="430.0" width="257.5" height="46.0" fill="#fdfdfd" stroke="#222" stroke-width="1.5"/><text x="210.8" y="453.0" text-anchor="middle" dominant-baseline="middle" fill="#111">total = total + values[idx]</text><rect x="141.5" y="520.0" width="138.5" height="46.0" fill="#fdfdfd" stroke="#222" stroke-width="1.5"/><text x="210.8" y="543.0" text-anchor="middle" dominant-baseline="middle" fill="#111">idx = idx + 1</text><rect x="52.2" y="654.0" width="317.0" height="46.0" fill="#fdfdfd" stroke="#222" stroke-width="1.5"/><text x="210.8" y="677.0" text-anchor="middle" dominant-baseline="middle" fill="#111">Повернути total / dovzhyna(values)</text><rect x="145.8" y="744.0" width="130.0" height="42.0" rx="21.0" fill="#fdfdfd" stroke="#222" stroke-width="1.5"/><text x="210.8" y="765.0" text-anchor="middle" dominant-baseline="middle" fill="#111">Кінець average</text></svg>