<svg xmlns="http://www.w3.org/2000/svg" width="402" height="1696" viewBox="0 0 402 1696" font-family="Arial, sans-serif"><rect width="100%" height="100%" fill="#ffffff"/><text x="20.0" y="40.0" font-size="16" font-weight="bold" fill="#0f172a">Головна програма</text><svg x="92.0" y="50.0" xmlns="http://www.w3.org/2000/svg" width="218" height="306" viewBox="0 0 218 306" font-family="Arial, sans-serif" font-size="14"><defs><marker id="arr" markerWidth="9" markerHeight="9" refX="7.5" refY="3" orient="auto"><path d="M0,0 L8,3 L0,6 Z" fill="#222"/></marker></defs><rect width="100%" height="100%" fill="#ffffff"/><path d="M109.0 86.0 L109.0 130.0" fill="none" stroke="#222" stroke-width="1.5" marker-end="url(#arr)"/><path d="M109.0 176.0 L109.0 220.0" fill="none" stroke="#222" stroke-width="1.5" marker-end="url(#arr)"/><rect x="44.0" y="44.0" width="130.0" height="42.0" rx="21.0" fill="#fdfdfd" stroke="#222" stroke-width="1.5"/><text x="109.0" y="65.0" text-anchor="middle" dominant-baseline="middle" fill="#111">Початок</text><rect x="44.0" y="130.0" width="130.0" height="46.0" fill="#fdfdfd" stroke="#222" stroke-width="1.5"/><line x1="53.0" y1="130.0" x2="53.0" y2="176.0" stroke="#222" stroke-width="1.5"/><line x1="165.0" y1="130.0" x2="165.0" y2="176.0" stroke="#222" stroke-width="1.5"/><text x="109.0" y="153.0" text-anchor="middle" dominant-baseline="middle" fill="#111">Hi()</text><rect x="44.0" y="220.0" width="130.0" height="42.0" rx="21.0" fill="#fdfdfd" stroke="#222" stroke-width="1.5"/><text x="109.0" y="241.0" text-anchor="middle" dominant-baseline="middle" fill="#111">Кінець</text></svg><text x="20.0" y="420.0" font-size="16" font-weight="bold" fill="#0f172a">Модуль hello — функція Hello</text><svg x="28.0" y="430.0" xmlns="http://www.w3.org/2000/svg" width="346" height="306" viewBox="0 0 346 306" font-family="Arial, sans-serif" font-size="14"><defs><marker id="arr" markerWidth="9" markerHeight="9" refX="7.5" refY="3" orient="auto"><path d="M0,0 L8,3 L0,6 Z" fill="#222"/></marker></defs><rect width="100%" height="100%" fill="#ffffff"/><path d="M172.8 86.0 L172.8 130.0" fill="none" stroke="#222" stroke-width="1.5" marker-end="url(#arr)"/><path d="M172.8 176.0 L172.8 220.0" fill="none" stroke="#222" stroke-width="1.5" marker-end="url(#arr)"/><rect x="107.8" y="44.0" width="130.0" height="42.0" rx="21.0" fill="#fdfdfd" stroke="#222" stroke-width="1.5"/><text x="172.8" y="65.0" text-anchor="middle" dominant-baseline="middle" fill="#111">Початок Hello</text><polygon points="62.4,130.0 301.5,130.0 283.1,176.0 44.0,176.0" fill="#fdfdfd" stroke="#222" stroke-width="1.5"/><text x="172.8" y="153.0" text-anchor="middle" dominant-baseline="middle" fill="#111">Вивід &quot;Hello &quot; + name + &quot;!&quot;</text><rect x="107.8" y="220.0" width="130.0" height="42.0" rx="21.0" fill="#fdfdfd" stroke="#222" stroke-width="1.5"/><text x="172.8" y="241.0" text-anchor="middle" dominant-baseline="middle" fill="#111">Кінець Hello</text></svg><text x="20.0" y="800.0" font-size="16" font-weight="bold" fill="#0f172a">Модуль hello — функція Hi</text><svg x="41.0" y="810.0" xmlns="http://www.w3.org/2000/svg" width="320" height="306" viewBox="0 0 320 306" font-family="Arial, sans-serif" font-size="14"><defs><marker id="arr" markerWidth="9" markerHeight="9" refX="7.5" refY="3" orient="auto"><path d="M0,0 L8,3 L0,6 Z" fill="#222"/></marker></defs><rect width="100%" height="100%" fill="#ffffff"/><path d="M160.0 86.0 L160.0 130.0" fill="none" stroke="#222" stroke-width="1.5" marker-end="url(#arr)"/><path d="M160.0 176.0 L160.0 220.0" fill="none" stroke="#222" stroke-width="1.5" marker-end="url(#arr)"/><rect x="95.0" y="44.0" width="130.0" height="42.0" rx="21.0" fill="#fdfdfd" stroke="#222" stroke-width="1.5"/><text x="160.0" y="65.0" text-anchor="middle" dominant-baseline="middle" fill="#111">Початок Hi</text><polygon points="62.4,130.0 276.0,130.0 257.6,176.0 44.0,176.0" fill="#fdfdfd" stroke="#222" stroke-width="1.5"/><text x="160.0" y="153.0" text-anchor="middle" dominant-baseline="middle" fill="#111">Вивід &quot;Hi &quot; + name + &quot;!&quot;</text><rect x="95.0" y="220.0" width="130.0" height="42.0" rx="21.0" fill="#fdfdfd" stroke="#222" stroke-width="1.5"/><text x="160.0" y="241.0" text-anchor="middle" dominant-baseline="middle" fill="#111">Кінець Hi</text></svg><text x="20.0" y="1180.0" font-size="16" font-weight="bold" fill="#0f172a">Функція Hi</text><svg x="20.0" y="1190.0" xmlns="http://www.w3.org/2000/svg" width="362" height="486" viewBox="0 0 362 486" font-family="Arial, sans-serif" font-size="14"><defs><marker id="arr" markerWidth="9" markerHeight="9" refX="7.5" refY="3" orient="auto"><path d="M0,0 L8,3 L0,6 Z" fill="#222"/></marker></defs><rect width="100%" height="100%" fill="#ffffff"/><path d="M181.2 86.0 L181.2 130.0" fill="none" stroke="#222" stroke-width="1.5" marker-end="url(#arr)"/><path d="M181.2 176.0 L181.2 220.0" fill="none" stroke="#222" stroke-width="1.5" marker-end="url(#arr)"/><path d="M181.2 266.0 L181.2 310.0" fill="none" stroke="#222" stroke-width="1.5" marker-end="url(#arr)"/><path d="M181.2 356.0 L181.2 400.0" fill="none" stroke="#222" stroke-width="1.5" marker-end="url(#arr)"/><rect x="116.2" y="44.0" width="130.0" height="42.0" rx="21.0" fill="#fdfdfd" stroke="#222" stroke-width="1.5"/><text x="181.2" y="65.0" text-anchor="middle" dominant-baseline="middle" fill="#111">Початок Hi</text><polygon points="62.4,130.0 318.5,130.0 300.1,176.0 44.0,176.0" fill="#fdfdfd" stroke="#222" stroke-width="1.5"/><text x="181.2" y="153.0" text-anchor="middle" dominant-baseline="middle" fill="#111">Вивід &quot;this is MY HI FUNCTIA&quot;</text><rect x="82.2" y="220.0" width="198.0" height="46.0" fill="#fdfdfd" stroke="#222" stroke-width="1.5"/><text x="181.2" y="243.0" text-anchor="middle" dominant-baseline="middle" fill="#111">hello.Hello(&quot;world&quot;)</text><rect x="90.8" y="310.0" width="181.0" height="46.0" fill="#fdfdfd" stroke="#222" stroke-width="1.5"/><text x="181.2" y="333.0" text-anchor="middle" dominant-baseline="middle" fill="#111">hello.Hi(&quot;world!&quot;)</text><rect x="116.2" y="400.0" width="130.0" height="42.0" rx="21.0" fill="#fdfdfd" stroke="#222" stroke-width="1.5"/><text x="181.2" y="421.0" text-anchor="middle" dominant-baseline="middle" fill="#111">Кінець Hi</text></svg></svg>