<svg xmlns="http://www.w3.org/2000/svg" width="944" height="6534" viewBox="0 0 944 6534" font-family="Arial, sans-serif"><rect width="100%" height="100%" fill="#ffffff"/><text x="20.0" y="40.0" font-size="16" font-weight="bold" fill="#0f172a">Головна програма</text><svg x="265.0" y="50.0" xmlns="http://www.w3.org/2000/svg" width="414" height="486" viewBox="0 0 414 486" font-family="Arial, sans-serif" font-size="14"><defs><marker id="arr" markerWidth="9" markerHeight="9" refX="7.5" refY="3" orient="auto"><path d="M0,0 L8,3 L0,6 Z" fill="#222"/></marker></defs><rect width="100%" height="100%" fill="#ffffff"/><path d="M206.8 86.0 L206.8 130.0" fill="none" stroke="#222" stroke-width="1.5" marker-end="url(#arr)"/><path d="M206.8 176.0 L206.8 220.0" fill="none" stroke="#222" stroke-width="1.5" marker-end="url(#arr)"/><path d="M206.8 266.0 L206.8 310.0" fill="none" stroke="#222" stroke-width="1.5" marker-end="url(#arr)"/><path d="M206.8 356.0 L206.8 400.0" fill="none" stroke="#222" stroke-width="1.5" marker-end="url(#arr)"/><rect x="141.8" y="44.0" width="130.0" height="42.0" rx="21.0" fill="#fdfdfd" stroke="#222" stroke-width="1.5"/><text x="206.8" y="65.0" text-anchor="middle" dominant-baseline="middle" fill="#111">Початок</text><rect x="44.0" y="130.0" width="325.5" height="46.0" fill="#fdfdfd" stroke="#222" stroke-width="1.5"/><text x="206.8" y="153.0" text-anchor="middle" dominant-baseline="middle" fill="#111">sessions = [35, 40, 28, 55, 47, 33]</text><rect x="141.8" y="220.0" width="130.0" height="46.0" fill="#fdfdfd" stroke="#222" stroke-width="1.5"/><text x="206.8" y="243.0" text-anchor="middle" dominant-baseline="middle" fill="#111">target = 40</text><rect x="141.8" y="310.0" width="130.0" height="46.0" fill="#fdfdfd" stroke="#222" stroke-width="1.5"/><line x1="150.8" y1="310.0" x2="150.8" y2="356.0" stroke="#222" stroke-width="1.5"/><line x1="262.8" y1="310.0" x2="262.8" y2="356.0" stroke="#222" stroke-width="1.5"/><text x="206.8" y="333.0" text-anchor="middle" dominant-baseline="middle" fill="#111">main()</text><rect x="141.8" y="400.0" width="130.0" height="42.0" rx="21.0" fill="#fdfdfd" stroke="#222" stroke-width="1.5"/><text x="206.8" y="421.0" text-anchor="middle" dominant-baseline="middle" fill="#111">Кінець</text></svg><text x="20.0" y="600.0" font-size="16" font-weight="bold" fill="#0f172a">Функція main</text><svg x="130.0" y="610.0" xmlns="http://www.w3.org/2000/svg" width="684" height="2618" viewBox="0 0 684 2618" font-family="Arial, sans-serif" font-size="14"><defs><marker id="arr" markerWidth="9" markerHeight="9" refX="7.5" refY="3" orient="auto"><path d="M0,0 L8,3 L0,6 Z" fill="#222"/></marker></defs><rect width="100%" height="100%" fill="#ffffff"/><path d="M342.2 86.0 L342.2 130.0" fill="none" stroke="#222" stroke-width="1.5" marker-end="url(#arr)"/><path d="M342.2 176.0 L342.2 220.0" fill="none" stroke="#222" stroke-width="1.5" marker-end="url(#arr)"/><path d="M342.2 266.0 L342.2 310.0" fill="none" stroke="#222" stroke-width="1.5" marker-end="url(#arr)"/><path d="M342.2 356.0 L342.2 400.0" fill="none" stroke="#222" stroke-width="1.5" marker-end="url(#arr)"/><path d="M342.2 476.0 L342.2 520.0" fill="none" stroke="#222" stroke-width="1.5" marker-end="url(#arr)"/><text x="348.2" y="498.0" text-anchor="start" font-size="12" fill="#444">Так</text><path d="M342.2 566.0 L342.2 610.0" fill="none" stroke="#222" stroke-width="1.5" marker-end="url(#arr)"/><path d="M342.2 656.0 L342.2 700.0" fill="none" stroke="#222" stroke-width="1.5" marker-end="url(#arr)"/><path d="M342.2 746.0 L342.2 790.0" fill="none" stroke="#222" stroke-width="1.5" marker-end="url(#arr)"/><path d="M342.2 836.0 L342.2 880.0" fill="none" stroke="#222" stroke-width="1.5" marker-end="url(#arr)"/><path d="M342.2 926.0 L342.2 970.0" fill="none" stroke="#222" stroke-width="1.5" marker-end="url(#arr)"/><path d="M342.2 1016.0 L342.2 1060.0" fill="none" stroke="#222" stroke-width="1.5" marker-end="url(#arr)"/><path d="M342.2 1106.0 L342.2 1150.0" fill="none" stroke="#222" stroke-width="1.5" marker-end="url(#arr)"/><path d="M342.2 1196.0 L342.2 1240.0" fill="none" stroke="#222" stroke-width="1.5" marker-end="url(#arr)"/><path d="M342.2 1286.0 L342.2 1330.0" fill="none" stroke="#222" stroke-width="1.5" marker-end="url(#arr)"/><path d="M342.2 1376.0 L342.2 1420.0" fill="none" stroke="#222" stroke-width="1.5" marker-end="url(#arr)"/><path d="M342.2 1466.0 L342.2 1510.0" fill="none" stroke="#222" stroke-width="1.5" marker-end="url(#arr)"/><path d="M342.2 1556.0 L342.2 1600.0" fill="none" stroke="#222" stroke-width="1.5" marker-end="url(#arr)"/><path d="M342.2 1646.0 L342.2 1668.0 L538.8 1668.0 L538.8 438.0 L465.8 438.0" fill="none" stroke="#222" stroke-width="1.5" marker-end="url(#arr)"/><path d="M218.8 438.0 L145.8 438.0 L145.8 1690.0 L342.2 1690.0" fill="none" stroke="#222" stroke-width="1.5"/><text x="212.8" y="431.0" text-anchor="end" font-size="12" fill="#444">Ні</text><path d="M342.2 1690.0 L342.2 1734.0" fill="none" stroke="#222" stroke-width="1.5" marker-end="url(#arr)"/><path d="M342.2 1780.0 L342.2 1824.0" fill="none" stroke="#222" stroke-width="1.5" marker-end="url(#arr)"/><path d="M342.2 1870.0 L342.2 1914.0" fill="none" stroke="#222" stroke-width="1.5" marker-end="url(#arr)"/><path d="M342.2 1960.0 L342.2 2004.0" fill="none" stroke="#222" stroke-width="1.5" marker-end="url(#arr)"/><path d="M342.2 2050.0 L342.2 2094.0" fill="none" stroke="#222" stroke-width="1.5" marker-end="url(#arr)"/><path d="M210.2 2132.0 L147.2 2132.0 L147.2 2218.0" fill="none" stroke="#222" stroke-width="1.5" marker-end="url(#arr)"/><text x="204.2" y="2125.0" text-anchor="end" font-size="12" fill="#444">Так</text><path d="M147.2 2264.0 L147.2 2308.0 L342.2 2308.0" fill="none" stroke="#222" stroke-width="1.5"/><path d="M474.2 2132.0 L473.5 2132.0 L473.5 2218.0" fill="none" stroke="#222" stroke-width="1.5" marker-end="url(#arr)"/><text x="468.2" y="2125.0" text-anchor="end" font-size="12" fill="#444">Ні</text><path d="M473.5 2264.0 L473.5 2308.0 L342.2 2308.0" fill="none" stroke="#222" stroke-width="1.5"/><path d="M342.2 2308.0 L342.2 2352.0" fill="none" stroke="#222" stroke-width="1.5" marker-end="url(#arr)"/><path d="M342.2 2398.0 L342.2 2442.0" fill="none" stroke="#222" stroke-width="1.5" marker-end="url(#arr)"/><path d="M342.2 2488.0 L342.2 2532.0" fill="none" stroke="#222" stroke-width="1.5" marker-end="url(#arr)"/><rect x="277.2" y="44.0" width="130.0" height="42.0" rx="21.0" fill="#fdfdfd" stroke="#222" stroke-width="1.5"/><text x="342.2" y="65.0" text-anchor="middle" dominant-baseline="middle" fill="#111">Початок main</text><polygon points="176.7,130.0 526.2,130.0 507.9,176.0 158.2,176.0" fill="#fdfdfd" stroke="#222" stroke-width="1.5"/><text x="342.2" y="153.0" text-anchor="middle" dominant-baseline="middle" fill="#111">Вивід &quot;
=== Трекер навчальних сесій ===&quot;</text><rect x="277.2" y="220.0" width="130.0" height="46.0" fill="#fdfdfd" stroke="#222" stroke-width="1.5"/><text x="342.2" y="243.0" text-anchor="middle" dominant-baseline="middle" fill="#111">total = 0</text><rect x="277.2" y="310.0" width="130.0" height="46.0" fill="#fdfdfd" stroke="#222" stroke-width="1.5"/><text x="342.2" y="333.0" text-anchor="middle" dominant-baseline="middle" fill="#111">i = 0</text><polygon points="342.2,400.0 465.8,438.0 342.2,476.0 218.8,438.0" fill="#fdfdfd" stroke="#222" stroke-width="1.5"/><text x="342.2" y="438.0" text-anchor="middle" dominant-baseline="middle" fill="#111">i &lt; dovzhyna(sessions)</text><rect x="234.8" y="520.0" width="215.0" height="46.0" fill="#fdfdfd" stroke="#222" stroke-width="1.5"/><text x="342.2" y="543.0" text-anchor="middle" dominant-baseline="middle" fill="#111">duration = sessions[i]</text><rect x="226.2" y="610.0" width="232.0" height="46.0" fill="#fdfdfd" stroke="#222" stroke-width="1.5"/><text x="342.2" y="633.0" text-anchor="middle" dominant-baseline="middle" fill="#111">total = total + duration</text><polygon points="287.1,700.0 415.8,700.0 397.4,746.0 268.8,746.0" fill="#fdfdfd" stroke="#222" stroke-width="1.5"/><text x="342.2" y="723.0" text-anchor="middle" dominant-baseline="middle" fill="#111">Вивід &quot;
Сесія&quot;</text><polygon points="295.6,790.0 407.2,790.0 388.9,836.0 277.2,836.0" fill="#fdfdfd" stroke="#222" stroke-width="1.5"/><text x="342.2" y="813.0" text-anchor="middle" dominant-baseline="middle" fill="#111">Вивід i + 1</text><polygon points="257.4,880.0 445.5,880.0 427.1,926.0 239.0,926.0" fill="#fdfdfd" stroke="#222" stroke-width="1.5"/><text x="342.2" y="903.0" text-anchor="middle" dominant-baseline="middle" fill="#111">Вивід &quot;  Тривалість:&quot;</text><polygon points="287.1,970.0 415.8,970.0 397.4,1016.0 268.8,1016.0" fill="#fdfdfd" stroke="#222" stroke-width="1.5"/><text x="342.2" y="993.0" text-anchor="middle" dominant-baseline="middle" fill="#111">Вивід duration</text><polygon points="219.2,1060.0 483.8,1060.0 465.4,1106.0 200.8,1106.0" fill="#fdfdfd" stroke="#222" stroke-width="1.5"/><text x="342.2" y="1083.0" text-anchor="middle" dominant-baseline="middle" fill="#111">Вивід &quot;  Відхилення від мети:&quot;</text><polygon points="236.2,1150.0 466.8,1150.0 448.4,1196.0 217.8,1196.0" fill="#fdfdfd" stroke="#222" stroke-width="1.5"/><text x="342.2" y="1173.0" text-anchor="middle" dominant-baseline="middle" fill="#111">Вивід absduration - target</text><polygon points="244.7,1240.0 458.2,1240.0 439.9,1286.0 226.2,1286.0" fill="#fdfdfd" stroke="#222" stroke-width="1.5"/><text x="342.2" y="1263.0" text-anchor="middle" dominant-baseline="middle" fill="#111">Вивід &quot;  Інтенсивність:&quot;</text><polygon points="240.4,1330.0 462.5,1330.0 444.1,1376.0 222.0,1376.0" fill="#fdfdfd" stroke="#222" stroke-width="1.5"/><text x="342.2" y="1353.0" text-anchor="middle" dominant-baseline="middle" fill="#111">Вивід heatMeter(duration)</text><polygon points="261.6,1420.0 441.2,1420.0 422.9,1466.0 243.2,1466.0" fill="#fdfdfd" stroke="#222" stroke-width="1.5"/><text x="342.2" y="1443.0" text-anchor="middle" dominant-baseline="middle" fill="#111">Вивід &quot;  Результат:&quot;</text><polygon points="202.2,1510.0 500.8,1510.0 482.4,1556.0 183.8,1556.0" fill="#fdfdfd" stroke="#222" stroke-width="1.5"/><text x="342.2" y="1533.0" text-anchor="middle" dominant-baseline="middle" fill="#111">Вивід categorize(duration, target)</text><rect x="277.2" y="1600.0" width="130.0" height="46.0" fill="#fdfdfd" stroke="#222" stroke-width="1.5"/><text x="342.2" y="1623.0" text-anchor="middle" dominant-baseline="middle" fill="#111">i = i + 1</text><rect x="179.5" y="1734.0" width="325.5" height="46.0" fill="#fdfdfd" stroke="#222" stroke-width="1.5"/><text x="342.2" y="1757.0" text-anchor="middle" dominant-baseline="middle" fill="#111">averageDuration = average(sessions)</text><rect x="213.5" y="1824.0" width="257.5" height="46.0" fill="#fdfdfd" stroke="#222" stroke-width="1.5"/><text x="342.2" y="1847.0" text-anchor="middle" dominant-baseline="middle" fill="#111">swing = deviation(sessions)</text><polygon points="227.7,1914.0 475.2,1914.0 456.9,1960.0 209.2,1960.0" fill="#fdfdfd" stroke="#222" stroke-width="1.5"/><text x="342.2" y="1937.0" text-anchor="middle" dominant-baseline="middle" fill="#111">Вивід &quot;
Середня тривалість:&quot;</text><polygon points="257.4,2004.0 445.5,2004.0 427.1,2050.0 239.0,2050.0" fill="#fdfdfd" stroke="#222" stroke-width="1.5"/><text x="342.2" y="2027.0" text-anchor="middle" dominant-baseline="middle" fill="#111">Вивід averageDuration</text><polygon points="342.2,2094.0 474.2,2132.0 342.2,2170.0 210.2,2132.0" fill="#fdfdfd" stroke="#222" stroke-width="1.5"/><text x="342.2" y="2132.0" text-anchor="middle" dominant-baseline="middle" fill="#111">averageDuration &gt; target</text><polygon points="62.4,2218.0 250.5,2218.0 232.1,2264.0 44.0,2264.0" fill="#fdfdfd" stroke="#222" stroke-width="1.5"/><text x="147.2" y="2241.0" text-anchor="middle" dominant-baseline="middle" fill="#111">Вивід &quot;Ціль на рівні&quot;</text><polygon points="324.9,2218.0 640.5,2218.0 622.1,2264.0 306.5,2264.0" fill="#fdfdfd" stroke="#222" stroke-width="1.5"/><text x="473.5" y="2241.0" text-anchor="middle" dominant-baseline="middle" fill="#111">Вивід &quot;Потрібно більше концентрації&quot;</text><polygon points="253.2,2352.0 449.8,2352.0 431.4,2398.0 234.8,2398.0" fill="#fdfdfd" stroke="#222" stroke-width="1.5"/><text x="342.2" y="2375.0" text-anchor="middle" dominant-baseline="middle" fill="#111">Вивід &quot;
Розмах сесій:&quot;</text><polygon points="295.6,2442.0 407.2,2442.0 388.9,2488.0 277.2,2488.0" fill="#fdfdfd" stroke="#222" stroke-width="1.5"/><text x="342.2" y="2465.0" text-anchor="middle" dominant-baseline="middle" fill="#111">Вивід swing</text><rect x="277.2" y="2532.0" width="130.0" height="42.0" rx="21.0" fill="#fdfdfd" stroke="#222" stroke-width="1.5"/><text x="342.2" y="2553.0" text-anchor="middle" dominant-baseline="middle" fill="#111">Кінець main</text></svg><text x="20.0" y="3292.0" font-size="16" font-weight="bold" fill="#0f172a">Функція categorize</text><svg x="20.0" y="3302.0" xmlns="http://www.w3.org/2000/svg" width="904" height="598" viewBox="0 0 904 598" font-family="Arial, sans-serif" font-size="14"><defs><marker id="arr" markerWidth="9" markerHeight="9" refX="7.5" refY="3" orient="auto"><path d="M0,0 L8,3 L0,6 Z" fill="#222"/></marker></defs><rect width="100%" height="100%" fill="#ffffff"/><path d="M452.2 86.0 L452.2 130.0" fill="none" stroke="#222" stroke-width="1.5" marker-end="url(#arr)"/><path d="M337.2 168.0 L143.0 168.0 L143.0 254.0" fill="none" stroke="#222" stroke-width="1.5" marker-end="url(#arr)"/><text x="331.2" y="161.0" text-anchor="end" font-size="12" fill="#444">Так</text><path d="M567.2 168.0 L579.2 168.0 L579.2 254.0" fill="none" stroke="#222" stroke-width="1.5" marker-end="url(#arr)"/><text x="573.2" y="161.0" text-anchor="start" font-size="12" fill="#444">Ні</text><path d="M443.0 292.0 L384.2 292.0 L384.2 378.0" fill="none" stroke="#222" stroke-width="1.5" marker-end="url(#arr)"/><text x="437.0" y="285.0" text-anchor="end" font-size="12" fill="#444">Так</text><path d="M715.5 292.0 L693.5 292.0 L693.5 378.0" fill="none" stroke="#222" stroke-width="1.5" marker-end="url(#arr)"/><text x="709.5" y="285.0" text-anchor="end" font-size="12" fill="#444">Ні</text><path d="M143.0 300.0 L143.0 468.0 L452.2 468.0" fill="none" stroke="#222" stroke-width="1.5"/><path d="M384.2 424.0 L452.2 424.0 L452.2 468.0" fill="none" stroke="#222" stroke-width="1.5"/><path d="M693.5 424.0 L693.5 468.0 L452.2 468.0" fill="none" stroke="#222" stroke-width="1.5"/><path d="M452.2 468.0 L452.2 512.0" fill="none" stroke="#222" stroke-width="1.5" marker-end="url(#arr)"/><rect x="387.2" y="44.0" width="130.0" height="42.0" rx="21.0" fill="#fdfdfd" stroke="#222" stroke-width="1.5"/><text x="452.2" y="65.0" text-anchor="middle" dominant-baseline="middle" fill="#111">Початок categorize</text><polygon points="452.2,130.0 567.2,168.0 452.2,206.0 337.2,168.0" fill="#fdfdfd" stroke="#222" stroke-width="1.5"/><text x="452.2" y="168.0" text-anchor="middle" dominant-baseline="middle" fill="#111">duration &gt; benchmark</text><rect x="44.0" y="254.0" width="198.0" height="46.0" fill="#fdfdfd" stroke="#222" stroke-width="1.5"/><text x="143.0" y="277.0" text-anchor="middle" dominant-baseline="middle" fill="#111">Повернути &quot;Вражаюче&quot;</text><polygon points="579.2,254.0 715.5,292.0 579.2,330.0 443.0,292.0" fill="#fdfdfd" stroke="#222" stroke-width="1.5"/><text x="579.2" y="292.0" text-anchor="middle" dominant-baseline="middle" fill="#111">duration &gt; benchmark - 10</text><rect x="298.0" y="378.0" width="172.5" height="46.0" fill="#fdfdfd" stroke="#222" stroke-width="1.5"/><text x="384.2" y="401.0" text-anchor="middle" dominant-baseline="middle" fill="#111">Повернути &quot;Добре&quot;</text><rect x="526.5" y="378.0" width="334.0" height="46.0" fill="#fdfdfd" stroke="#222" stroke-width="1.5"/><text x="693.5" y="401.0" text-anchor="middle" dominant-baseline="middle" fill="#111">Повернути &quot;Потрібно докласти зусиль&quot;</text><rect x="387.2" y="512.0" width="130.0" height="42.0" rx="21.0" fill="#fdfdfd" stroke="#222" stroke-width="1.5"/><text x="452.2" y="533.0" text-anchor="middle" dominant-baseline="middle" fill="#111">Кінець categorize</text></svg><text x="20.0" y="3964.0" font-size="16" font-weight="bold" fill="#0f172a">Функція heatMeter</text><svg x="278.0" y="3974.0" xmlns="http://www.w3.org/2000/svg" width="388" height="306" viewBox="0 0 388 306" font-family="Arial, sans-serif" font-size="14"><defs><marker id="arr" markerWidth="9" markerHeight="9" refX="7.5" refY="3" orient="auto"><path d="M0,0 L8,3 L0,6 Z" fill="#222"/></marker></defs><rect width="100%" height="100%" fill="#ffffff"/><path d="M194.0 86.0 L194.0 130.0" fill="none" stroke="#222" stroke-width="1.5" marker-end="url(#arr)"/><path d="M194.0 176.0 L194.0 220.0" fill="none" stroke="#222" stroke-width="1.5" marker-end="url(#arr)"/><rect x="129.0" y="44.0" width="130.0" height="42.0" rx="21.0" fill="#fdfdfd" stroke="#222" stroke-width="1.5"/><text x="194.0" y="65.0" text-anchor="middle" dominant-baseline="middle" fill="#111">Початок heatMeter</text><rect x="44.0" y="130.0" width="300.0" height="46.0" fill="#fdfdfd" stroke="#222" stroke-width="1.5"/><text x="194.0" y="153.0" text-anchor="middle" dominant-baseline="middle" fill="#111">Повернути korinduration stupin 2</text><rect x="129.0" y="220.0" width="130.0" height="42.0" rx="21.0" fill="#fdfdfd" stroke="#222" stroke-width="1.5"/><text x="194.0" y="241.0" text-anchor="middle" dominant-baseline="middle" fill="#111">Кінець heatMeter</text></svg><text x="20.0" y="4344.0" font-size="16" font-weight="bold" fill="#0f172a">Функція average</text><svg x="261.0" y="4354.0" xmlns="http://www.w3.org/2000/svg" width="422" height="830" viewBox="0 0 422 830" font-family="Arial, sans-serif" font-size="14"><defs><marker id="arr" markerWidth="9" markerHeight="9" refX="7.5" refY="3" orient="auto"><path d="M0,0 L8,3 L0,6 Z" fill="#222"/></marker></defs><rect width="100%" height="100%" fill="#ffffff"/><path d="M210.8 86.0 L210.8 130.0" fill="none" stroke="#222" stroke-width="1.5" marker-end="url(#arr)"/><path d="M210.8 176.0 L210.8 220.0" fill="none" stroke="#222" stroke-width="1.5" marker-end="url(#arr)"/><path d="M210.8 266.0 L210.8 310.0" fill="none" stroke="#222" stroke-width="1.5" marker-end="url(#arr)"/><path d="M210.8 386.0 L210.8 430.0" fill="none" stroke="#222" stroke-width="1.5" marker-end="url(#arr)"/><text x="216.8" y="408.0" text-anchor="start" font-size="12" fill="#444">Так</text><path d="M210.8 476.0 L210.8 520.0" fill="none" stroke="#222" stroke-width="1.5" marker-end="url(#arr)"/><path d="M210.8 566.0 L210.8 588.0 L377.5 588.0 L377.5 348.0 L334.2 348.0" fill="none" stroke="#222" stroke-width="1.5" marker-end="url(#arr)"/><path d="M87.2 348.0 L44.0 348.0 L44.0 610.0 L210.8 610.0" fill="none" stroke="#222" stroke-width="1.5"/><text x="81.2" y="341.0" text-anchor="end" font-size="12" fill="#444">Ні</text><path d="M210.8 610.0 L210.8 654.0" fill="none" stroke="#222" stroke-width="1.5" marker-end="url(#arr)"/><path d="M210.8 700.0 L210.8 744.0" fill="none" stroke="#222" stroke-width="1.5" marker-end="url(#arr)"/><rect x="145.8" y="44.0" width="130.0" height="42.0" rx="21.0" fill="#fdfdfd" stroke="#222" stroke-width="1.5"/><text x="210.8" y="65.0" text-anchor="middle" dominant-baseline="middle" fill="#111">Початок average</text><rect x="145.8" y="130.0" width="130.0" height="46.0" fill="#fdfdfd" stroke="#222" stroke-width="1.5"/><text x="210.8" y="153.0" text-anchor="middle" dominant-baseline="middle" fill="#111">total = 0</text><rect x="145.8" y="220.0" width="130.0" height="46.0" fill="#fdfdfd" stroke="#222" stroke-width="1.5"/><text x="210.8" y="243.0" text-anchor="middle" dominant-baseline="middle" fill="#111">idx = 0</text><polygon points="210.8,310.0 334.2,348.0 210.8,386.0 87.2,348.0" fill="#fdfdfd" stroke="#222" stroke-width="1.5"/><text x="210.8" y="348.0" text-anchor="middle" dominant-baseline="middle" fill="#111">idx &lt; dovzhyna(values)</text><rect x="82.0" y="430.0" width="257.5" height="46.0" fill="#fdfdfd" stroke="#222" stroke-width="1.5"/><text x="210.8" y="453.0" text-anchor="middle" dominant-baseline="middle" fill="#111">total = total + values[idx]</text><rect x="141.5" y="520.0" width="138.5" height="46.0" fill="#fdfdfd" stroke="#222" stroke-width="1.5"/><text x="210.8" y="543.0" text-anchor="middle" dominant-baseline="middle" fill="#111">idx = idx + 1</text><rect x="52.2" y="654.0" width="317.0" height="46.0" fill="#fdfdfd" stroke="#222" stroke-width="1.5"/><text x="210.8" y="677.0" text-anchor="middle" dominant-baseline="middle" fill="#111">Повернути total / dovzhyna(values)</text><rect x="145.8" y="744.0" width="130.0" height="42.0" rx="21.0" fill="#fdfdfd" stroke="#222" stroke-width="1.5"/><text x="210.8" y="765.0" text-anchor="middle" dominant-baseline="middle" fill="#111">Кінець average</text></svg><text x="20.0" y="5248.0" font-size="16" font-weight="bold" fill="#0f172a">Функція deviation</text><svg x="104.0" y="5258.0" xmlns="http://www.w3.org/2000/svg" width="736" height="1256" viewBox="0 0 736 1256" font-family="Arial, sans-serif" font-size="14"><defs><marker id="arr" markerWidth="9" markerHeight="9" refX="7.5" refY="3" orient="auto"><path d="M0,0 L8,3 L0,6 Z" fill="#222"/></marker></defs><rect width="100%" height="100%" fill="#ffffff"/><path d="M368.2 86.0 L368.2 130.0" fill="none" stroke="#222" stroke-width="1.5" marker-end="url(#arr)"/><path d="M368.2 176.0 L368.2 220.0" fill="none" stroke="#222" stroke-width="1.5" marker-end="url(#arr)"/><path d="M368.2 266.0 L368.2 310.0" fill="none" stroke="#222" stroke-width="1.5" marker-end="url(#arr)"/><path d="M368.2 356.0 L368.2 400.0" fill="none" stroke="#222" stroke-width="1.5" marker-end="url(#arr)"/><path d="M368.2 476.0 L368.2 520.0" fill="none" stroke="#222" stroke-width="1.5" marker-end="url(#arr)"/><text x="374.2" y="498.0" text-anchor="start" font-size="12" fill="#444">Так</text><path d="M249.0 558.0 L185.2 558.0 L185.2 644.0" fill="none" stroke="#222" stroke-width="1.5" marker-end="url(#arr)"/><text x="243.0" y="551.0" text-anchor="end" font-size="12" fill="#444">Так</text><path d="M185.2 690.0 L185.2 902.0 L368.2 902.0" fill="none" stroke="#222" stroke-width="1.5"/><path d="M487.5 558.0 L499.5 558.0 L499.5 644.0" fill="none" stroke="#222" stroke-width="1.5" marker-end="url(#arr)"/><text x="493.5" y="551.0" text-anchor="start" font-size="12" fill="#444">Ні</text><path d="M499.5 720.0 L499.5 768.0" fill="none" stroke="#222" stroke-width="1.5" marker-end="url(#arr)"/><text x="505.5" y="744.0" text-anchor="start" font-size="12" fill="#444">Так</text><path d="M614.5 682.0 L654.5 682.0 L654.5 858.0 L499.5 858.0" fill="none" stroke="#222" stroke-width="1.5"/><text x="620.5" y="675.0" text-anchor="start" font-size="12" fill="#444">Ні</text><path d="M499.5 814.0 L499.5 858.0" fill="none" stroke="#222" stroke-width="1.5"/><path d="M499.5 858.0 L499.5 902.0 L368.2 902.0" fill="none" stroke="#222" stroke-width="1.5"/><path d="M368.2 902.0 L368.2 946.0" fill="none" stroke="#222" stroke-width="1.5" marker-end="url(#arr)"/><path d="M368.2 992.0 L368.2 1014.0 L692.5 1014.0 L692.5 438.0 L491.8 438.0" fill="none" stroke="#222" stroke-width="1.5" marker-end="url(#arr)"/><path d="M244.8 438.0 L44.0 438.0 L44.0 1036.0 L368.2 1036.0" fill="none" stroke="#222" stroke-width="1.5"/><text x="238.8" y="431.0" text-anchor="end" font-size="12" fill="#444">Ні</text><path d="M368.2 1036.0 L368.2 1080.0" fill="none" stroke="#222" stroke-width="1.5" marker-end="url(#arr)"/><path d="M368.2 1126.0 L368.2 1170.0" fill="none" stroke="#222" stroke-width="1.5" marker-end="url(#arr)"/><rect x="303.2" y="44.0" width="130.0" height="42.0" rx="21.0" fill="#fdfdfd" stroke="#222" stroke-width="1.5"/><text x="368.2" y="65.0" text-anchor="middle" dominant-baseline="middle" fill="#111">Початок deviation</text><rect x="273.5" y="130.0" width="189.5" height="46.0" fill="#fdfdfd" stroke="#222" stroke-width="1.5"/><text x="368.2" y="153.0" text-anchor="middle" dominant-baseline="middle" fill="#111">highest = values[0]</text><rect x="277.8" y="220.0" width="181.0" height="46.0" fill="#fdfdfd" stroke="#222" stroke-width="1.5"/><text x="368.2" y="243.0" text-anchor="middle" dominant-baseline="middle" fill="#111">lowest = values[0]</text><rect x="303.2" y="310.0" width="130.0" height="46.0" fill="#fdfdfd" stroke="#222" stroke-width="1.5"/><text x="368.2" y="333.0" text-anchor="middle" dominant-baseline="middle" fill="#111">idx = 1</text><polygon points="368.2,400.0 491.8,438.0 368.2,476.0 244.8,438.0" fill="#fdfdfd" stroke="#222" stroke-width="1.5"/><text x="368.2" y="438.0" text-anchor="middle" dominant-baseline="middle" fill="#111">idx &lt; dovzhyna(values)</text><polygon points="368.2,520.0 487.5,558.0 368.2,596.0 249.0,558.0" fill="#fdfdfd" stroke="#222" stroke-width="1.5"/><text x="368.2" y="558.0" text-anchor="middle" dominant-baseline="middle" fill="#111">values[idx] &gt; highest</text><rect x="82.0" y="644.0" width="206.5" height="46.0" fill="#fdfdfd" stroke="#222" stroke-width="1.5"/><text x="185.2" y="667.0" text-anchor="middle" dominant-baseline="middle" fill="#111">highest = values[idx]</text><polygon points="499.5,644.0 614.5,682.0 499.5,720.0 384.5,682.0" fill="#fdfdfd" stroke="#222" stroke-width="1.5"/><text x="499.5" y="682.0" text-anchor="middle" dominant-baseline="middle" fill="#111">values[idx] &lt; lowest</text><rect x="400.5" y="768.0" width="198.0" height="46.0" fill="#fdfdfd" stroke="#222" stroke-width="1.5"/><text x="499.5" y="791.0" text-anchor="middle" dominant-baseline="middle" fill="#111">lowest = values[idx]</text><rect x="299.0" y="946.0" width="138.5" height="46.0" fill="#fdfdfd" stroke="#222" stroke-width="1.5"/><text x="368.2" y="969.0" text-anchor="middle" dominant-baseline="middle" fill="#111">idx = idx + 1</text><rect x="243.8" y="1080.0" width="249.0" height="46.0" fill="#fdfdfd" stroke="#222" stroke-width="1.5"/><text x="368.2" y="1103.0" text-anchor="middle" dominant-baseline="middle" fill="#111">Повернути highest - lowest</text><rect x="303.2" y="1170.0" width="130.0" height="42.0" rx="21.0" fill="#fdfdfd" stroke="#222" stroke-width="1.5"/><text x="368.2" y="1191.0" text-anchor="middle" dominant-baseline="middle" fill="#111">Кінець deviation</text></svg></svg>